<svg width="360" height="222" viewBox="0 0 360 222" fill="none" xmlns="http://www.w3.org/2000/svg">
<g opacity="0.8">
<g opacity="0.3">
<path opacity="0.3" d="M43.7628 68.2524H53.4439C53.4439 68.2524 49.7967 73.5569 43.7628 68.2524Z" fill="#D81159"/>
<path opacity="0.3" d="M44.3464 70.5068L50.6955 64.5078C50.6955 64.5078 53.1781 70.2394 44.3464 70.5068Z" fill="#D81159"/>
</g>
<g opacity="0.3">
<path opacity="0.3" d="M48.6953 209.406H58.3764C58.3764 209.406 54.7292 214.711 48.6953 209.406Z" fill="#D81159"/>
<path opacity="0.3" d="M49.2788 211.661L55.6278 205.662C55.6278 205.662 58.1105 211.393 49.2788 211.661Z" fill="#D81159"/>
</g>
<g opacity="0.3">
<path opacity="0.3" d="M16.6349 151.866H26.316C26.316 151.866 22.6688 157.171 16.6349 151.866Z" fill="#D81159"/>
<path opacity="0.3" d="M225.438 222L231.787 216.001C231.787 216.001 234.269 221.733 225.438 222Z" fill="#D81159"/>
</g>
<g opacity="0.3">
<path opacity="0.3" d="M347.65 206.484H357.332C357.332 206.484 353.684 211.789 347.65 206.484Z" fill="#D81159"/>
<path opacity="0.3" d="M348.234 208.738L354.583 202.74C354.583 202.74 357.066 208.471 348.234 208.738Z" fill="#D81159"/>
</g>
<g opacity="0.3">
<path opacity="0.3" d="M276.254 66.4736H285.935C285.935 66.4736 282.288 71.7782 276.254 66.4736Z" fill="#D81159"/>
<path opacity="0.3" d="M22.972 199.038L29.321 193.039C29.321 193.039 31.8036 198.77 22.972 199.038Z" fill="#D81159"/>
</g>
<g opacity="0.3">
<path opacity="0.3" d="M147.616 3.74487H157.297C157.297 3.74487 153.65 9.04938 147.616 3.74487Z" fill="#D81159"/>
<path opacity="0.3" d="M148.2 5.99903L154.549 0C154.549 0 157.032 5.73155 148.2 5.99903Z" fill="#D81159"/>
</g>
<g opacity="0.3">
<path opacity="0.3" d="M157.239 48.4519H166.921C166.921 48.4519 163.273 53.7564 157.239 48.4519Z" fill="#D81159"/>
<path opacity="0.3" d="M157.823 50.7063L164.172 44.7073C164.172 44.7073 166.655 50.4388 157.823 50.7063Z" fill="#D81159"/>
</g>
<g opacity="0.3">
<path opacity="0.3" d="M9.10956 26.6182H18.7907C18.7907 26.6182 15.1435 31.9227 9.10956 26.6182Z" fill="#D81159"/>
<path opacity="0.3" d="M9.69318 28.8723L16.0422 22.8733C16.0422 22.8733 18.5248 28.6048 9.69318 28.8723Z" fill="#D81159"/>
</g>
<g opacity="0.3">
<path opacity="0.3" d="M119.613 121.231H129.294C129.294 121.231 125.647 126.536 119.613 121.231Z" fill="#D81159"/>
<path opacity="0.3" d="M120.197 123.486L126.546 117.487C126.546 117.487 129.028 123.218 120.197 123.486Z" fill="#D81159"/>
</g>
<g opacity="0.3">
<path opacity="0.3" d="M4.35675 93.5059H14.0379C14.0379 93.5059 10.3907 98.8104 4.35675 93.5059Z" fill="#D81159"/>
<path opacity="0.3" d="M4.94037 95.7603L11.2894 89.7612C11.2894 89.7612 13.772 95.4928 4.94037 95.7603Z" fill="#D81159"/>
</g>
<g opacity="0.3">
<path opacity="0.3" d="M325.366 70.2856H335.048C335.048 70.2856 331.4 75.5902 325.366 70.2856Z" fill="#D81159"/>
<path opacity="0.3" d="M325.95 72.54L332.299 66.541C332.299 66.541 334.782 72.2726 325.95 72.54Z" fill="#D81159"/>
</g>
<g opacity="0.3">
<path opacity="0.3" d="M305.167 160.222L311.516 154.223C311.516 154.223 313.999 159.954 305.167 160.222Z" fill="#D81159"/>
</g>
<g opacity="0.3">
<path opacity="0.3" d="M350.319 89.7612H360C360 89.7612 356.353 95.0658 350.319 89.7612Z" fill="#D81159"/>
<path opacity="0.3" d="M67.5255 160.222L73.8745 154.223C73.8745 154.223 76.3571 159.954 67.5255 160.222Z" fill="#D81159"/>
</g>
<g opacity="0.3">
<path opacity="0.3" d="M219.22 146.252H228.901C228.901 146.252 225.254 151.556 219.22 146.252Z" fill="#D81159"/>
<path opacity="0.3" d="M177.633 105.464L183.982 99.4651C183.982 99.4651 186.464 105.197 177.633 105.464Z" fill="#D81159"/>
</g>
<g opacity="0.5">
<path opacity="0.5" d="M228.583 33.3016L228.876 33.1664L228.809 33.1595L228.829 33.1456L228.785 33.1561L220.611 32.2307L220.789 34.6012L221.046 36.698L221.549 36.4727L222.013 37.4015L228.583 33.3016Z" fill="url(#paint0_linear)"/>
<path opacity="0.5" d="M221.062 34.5563L221.3 36.4762L228.607 33.2358L222.262 33.3571L221.062 34.5563Z" fill="#0052EB"/>
<path opacity="0.2" d="M221.062 34.5563L221.3 36.4762L228.607 33.2358L222.262 33.3571L221.062 34.5563Z" fill="#D81159"/>
<path opacity="0.5" d="M220.9 32.3865L228.607 33.2356L221.062 34.556L220.9 32.3865Z" fill="#0052EB"/>
<path opacity="0.5" d="M222.203 37.114L228.564 33.2151L221.189 35.1351L222.203 37.114Z" fill="#0052EB"/>
</g>
<g opacity="0.5">
<path opacity="0.5" d="M172.738 71.0775L173.031 70.9423L172.963 70.9354L172.983 70.9215L172.94 70.9319L164.765 70.0066L164.943 72.3771L165.2 74.4739L165.703 74.2486L166.167 75.1774L172.738 71.0775Z" fill="url(#paint1_linear)"/>
<path opacity="0.5" d="M165.216 72.3321L165.454 74.2521L172.761 71.0117L166.416 71.133L165.216 72.3321Z" fill="#0052EB"/>
<path opacity="0.2" d="M165.216 72.3321L165.454 74.2521L172.761 71.0117L166.416 71.133L165.216 72.3321Z" fill="#D81159"/>
<path opacity="0.5" d="M165.054 70.1624L172.761 71.0115L165.216 72.3319L165.054 70.1624Z" fill="#0052EB"/>
<path opacity="0.5" d="M166.357 74.8898L172.718 70.991L165.343 72.9109L166.357 74.8898Z" fill="#0052EB"/>
</g>
<g opacity="0.5">
<path opacity="0.5" d="M102.237 79.0487L102.53 78.9135L102.463 78.9066L102.483 78.8927L102.439 78.9031L94.2645 77.9778L94.4427 80.3483L94.7001 82.4451L95.2031 82.2198L95.6665 83.1486L102.237 79.0487Z" fill="url(#paint2_linear)"/>
<path opacity="0.5" d="M94.7159 80.3033L94.9536 82.2233L102.261 78.9829L95.916 79.1042L94.7159 80.3033Z" fill="#0052EB"/>
<path opacity="0.2" d="M94.7159 80.3033L94.9536 82.2233L102.261 78.9829L95.916 79.1042L94.7159 80.3033Z" fill="#D81159"/>
<path opacity="0.5" d="M94.5536 78.1335L102.261 78.9826L94.716 80.3031L94.5536 78.1335Z" fill="#0052EB"/>
<path opacity="0.5" d="M95.8567 82.861L102.218 78.9622L94.8428 80.8821L95.8567 82.861Z" fill="#0052EB"/>
</g>
<g opacity="0.5">
<path opacity="0.5" d="M180.263 191.337L180.556 191.202L180.489 191.195L180.508 191.181L180.465 191.191L172.29 190.266L172.468 192.636L172.726 194.733L173.229 194.508L173.692 195.437L180.263 191.337Z" fill="url(#paint3_linear)"/>
<path opacity="0.5" d="M172.742 192.591L172.979 194.511L180.287 191.271L173.942 191.392L172.742 192.591Z" fill="#0052EB"/>
<path opacity="0.2" d="M172.742 192.591L172.979 194.511L180.287 191.271L173.942 191.392L172.742 192.591Z" fill="#D81159"/>
<path opacity="0.5" d="M172.579 190.422L180.287 191.271L172.742 192.591L172.579 190.422Z" fill="#0052EB"/>
<path opacity="0.5" d="M173.882 195.149L180.243 191.25L172.868 193.17L173.882 195.149Z" fill="#0052EB"/>
</g>
<g opacity="0.5">
<path opacity="0.5" d="M229.375 161.185L229.669 161.05L229.601 161.043L229.621 161.029L229.577 161.04L221.403 160.115L221.581 162.485L221.838 164.582L222.341 164.357L222.805 165.285L229.375 161.185Z" fill="url(#paint4_linear)"/>
<path opacity="0.5" d="M221.854 162.44L222.092 164.36L229.399 161.119L223.054 161.241L221.854 162.44Z" fill="#0052EB"/>
<path opacity="0.2" d="M221.854 162.44L222.092 164.36L229.399 161.119L223.054 161.241L221.854 162.44Z" fill="#D81159"/>
<path opacity="0.5" d="M221.692 160.27L229.399 161.119L221.854 162.44L221.692 160.27Z" fill="#0052EB"/>
<path opacity="0.5" d="M222.995 164.998L229.356 161.099L221.981 163.019L222.995 164.998Z" fill="#0052EB"/>
</g>
<g opacity="0.5">
<path opacity="0.5" d="M180.659 22.9046L180.952 22.7695L180.885 22.7625L180.905 22.7487L180.861 22.7591L172.686 21.8337L172.864 24.2043L173.122 26.301L173.625 26.0757L174.088 27.0045L180.659 22.9046Z" fill="url(#paint5_linear)"/>
<path opacity="0.5" d="M173.138 24.1593L173.375 26.0793L180.683 22.8389L174.338 22.9602L173.138 24.1593Z" fill="#0052EB"/>
<path opacity="0.2" d="M173.138 24.1593L173.375 26.0793L180.683 22.8389L174.338 22.9602L173.138 24.1593Z" fill="#D81159"/>
<path opacity="0.5" d="M172.975 21.9895L180.683 22.8386L173.138 24.159L172.975 21.9895Z" fill="#0052EB"/>
<path opacity="0.5" d="M174.278 26.717L180.639 22.8181L173.264 24.7381L174.278 26.717Z" fill="#0052EB"/>
</g>
<g opacity="0.5">
<path opacity="0.5" d="M66.9872 98.4566L67.2802 98.3215L67.2129 98.3145L67.2327 98.3007L67.1892 98.3111L59.0143 97.3857L59.1925 99.7563L59.45 101.853L59.953 101.628L60.4164 102.557L66.9872 98.4566Z" fill="url(#paint6_linear)"/>
<path opacity="0.5" d="M59.4658 99.7111L59.7034 101.631L67.0109 98.3906L60.6658 98.5119L59.4658 99.7111Z" fill="#0052EB"/>
<path opacity="0.2" d="M59.4658 99.7111L59.7034 101.631L67.0109 98.3906L60.6658 98.5119L59.4658 99.7111Z" fill="#D81159"/>
<path opacity="0.5" d="M59.3034 97.5415L67.0109 98.3906L59.4658 99.711L59.3034 97.5415Z" fill="#0052EB"/>
<path opacity="0.5" d="M60.6065 102.269L66.9673 98.3701L59.5925 100.29L60.6065 102.269Z" fill="#0052EB"/>
</g>
<g opacity="0.5">
<path opacity="0.5" d="M280.072 126.528L280.365 126.393L280.298 126.386L280.318 126.372L280.274 126.383L272.099 125.458L272.278 127.828L272.535 129.925L273.038 129.7L273.502 130.628L280.072 126.528Z" fill="url(#paint7_linear)"/>
<path opacity="0.5" d="M272.551 127.783L272.789 129.703L280.096 126.463L273.751 126.584L272.551 127.783Z" fill="#0052EB"/>
<path opacity="0.2" d="M272.551 127.783L272.789 129.703L280.096 126.463L273.751 126.584L272.551 127.783Z" fill="#D81159"/>
<path opacity="0.5" d="M272.389 125.614L280.096 126.463L272.551 127.783L272.389 125.614Z" fill="#0052EB"/>
<path opacity="0.5" d="M273.692 130.341L280.053 126.442L272.678 128.362L273.692 130.341Z" fill="#0052EB"/>
</g>
<g opacity="0.5">
<path opacity="0.5" d="M356.514 22.9046L356.807 22.7695L356.739 22.7625L356.759 22.7487L356.716 22.7591L348.541 21.8337L348.719 24.2043L348.977 26.301L349.48 26.0757L349.943 27.0045L356.514 22.9046Z" fill="url(#paint8_linear)"/>
<path opacity="0.5" d="M348.992 24.1593L349.23 26.0793L356.537 22.8389L350.192 22.9602L348.992 24.1593Z" fill="#0052EB"/>
<path opacity="0.2" d="M348.992 24.1593L349.23 26.0793L356.537 22.8389L350.192 22.9602L348.992 24.1593Z" fill="#D81159"/>
<path opacity="0.5" d="M348.83 21.9895L356.538 22.8386L348.992 24.159L348.83 21.9895Z" fill="#0052EB"/>
<path opacity="0.5" d="M350.133 26.717L356.494 22.8181L349.119 24.7381L350.133 26.717Z" fill="#0052EB"/>
</g>
<g opacity="0.5">
<path opacity="0.5" d="M7.97287 130.687L8.26596 130.552L8.19863 130.545L8.21843 130.531L8.17487 130.542L0 129.616L0.17823 131.987L0.435678 134.084L0.938682 133.858L1.40208 134.787L7.97287 130.687Z" fill="url(#paint9_linear)"/>
<path opacity="0.5" d="M0.451538 131.942L0.689182 133.862L7.99666 130.622L1.65163 130.743L0.451538 131.942Z" fill="#0052EB"/>
<path opacity="0.2" d="M0.451538 131.942L0.689182 133.862L7.99666 130.622L1.65163 130.743L0.451538 131.942Z" fill="#D81159"/>
<path opacity="0.5" d="M0.289124 129.772L7.99663 130.622L0.451513 131.942L0.289124 129.772Z" fill="#0052EB"/>
<path opacity="0.5" d="M1.59218 134.5L7.95305 130.601L0.578247 132.521L1.59218 134.5Z" fill="#0052EB"/>
</g>
</g>
<defs>
<linearGradient id="paint0_linear" x1="4001.3" y1="2890.28" x2="3996.83" y2="2812.24" gradientUnits="userSpaceOnUse">
<stop stop-color="#808080" stop-opacity="0.25"/>
<stop offset="0.54" stop-color="#808080" stop-opacity="0.12"/>
<stop offset="1" stop-color="#808080" stop-opacity="0.1"/>
</linearGradient>
<linearGradient id="paint1_linear" x1="3945.46" y1="2928.06" x2="3940.98" y2="2850.02" gradientUnits="userSpaceOnUse">
<stop stop-color="#808080" stop-opacity="0.25"/>
<stop offset="0.54" stop-color="#808080" stop-opacity="0.12"/>
<stop offset="1" stop-color="#808080" stop-opacity="0.1"/>
</linearGradient>
<linearGradient id="paint2_linear" x1="3874.94" y1="2936.03" x2="3870.47" y2="2857.99" gradientUnits="userSpaceOnUse">
<stop stop-color="#808080" stop-opacity="0.25"/>
<stop offset="0.54" stop-color="#808080" stop-opacity="0.12"/>
<stop offset="1" stop-color="#808080" stop-opacity="0.1"/>
</linearGradient>
<linearGradient id="paint3_linear" x1="3952.99" y1="3048.32" x2="3948.51" y2="2970.28" gradientUnits="userSpaceOnUse">
<stop stop-color="#808080" stop-opacity="0.25"/>
<stop offset="0.54" stop-color="#808080" stop-opacity="0.12"/>
<stop offset="1" stop-color="#808080" stop-opacity="0.1"/>
</linearGradient>
<linearGradient id="paint4_linear" x1="4002.09" y1="3018.17" x2="3997.62" y2="2940.13" gradientUnits="userSpaceOnUse">
<stop stop-color="#808080" stop-opacity="0.25"/>
<stop offset="0.54" stop-color="#808080" stop-opacity="0.12"/>
<stop offset="1" stop-color="#808080" stop-opacity="0.1"/>
</linearGradient>
<linearGradient id="paint5_linear" x1="3953.38" y1="2879.88" x2="3948.9" y2="2801.84" gradientUnits="userSpaceOnUse">
<stop stop-color="#808080" stop-opacity="0.25"/>
<stop offset="0.54" stop-color="#808080" stop-opacity="0.12"/>
<stop offset="1" stop-color="#808080" stop-opacity="0.1"/>
</linearGradient>
<linearGradient id="paint6_linear" x1="3839.71" y1="2955.43" x2="3835.23" y2="2877.39" gradientUnits="userSpaceOnUse">
<stop stop-color="#808080" stop-opacity="0.25"/>
<stop offset="0.54" stop-color="#808080" stop-opacity="0.12"/>
<stop offset="1" stop-color="#808080" stop-opacity="0.1"/>
</linearGradient>
<linearGradient id="paint7_linear" x1="4052.79" y1="2983.53" x2="4048.32" y2="2905.49" gradientUnits="userSpaceOnUse">
<stop stop-color="#808080" stop-opacity="0.25"/>
<stop offset="0.54" stop-color="#808080" stop-opacity="0.12"/>
<stop offset="1" stop-color="#808080" stop-opacity="0.1"/>
</linearGradient>
<linearGradient id="paint8_linear" x1="4129.22" y1="2879.88" x2="4124.74" y2="2801.84" gradientUnits="userSpaceOnUse">
<stop stop-color="#808080" stop-opacity="0.25"/>
<stop offset="0.54" stop-color="#808080" stop-opacity="0.12"/>
<stop offset="1" stop-color="#808080" stop-opacity="0.1"/>
</linearGradient>
<linearGradient id="paint9_linear" x1="3780.69" y1="2987.67" x2="3776.22" y2="2909.63" gradientUnits="userSpaceOnUse">
<stop stop-color="#808080" stop-opacity="0.25"/>
<stop offset="0.54" stop-color="#808080" stop-opacity="0.12"/>
<stop offset="1" stop-color="#808080" stop-opacity="0.1"/>
</linearGradient>
</defs>
</svg>
