<svg width="1067" height="825" viewBox="0 0 1067 825" fill="none" xmlns="http://www.w3.org/2000/svg">
<g clip-path="url(#clip0)">
<path d="M962.551 394.71L946.672 466.13L933.782 524.07L923.508 570.28L910.626 628.22L868.531 817.51L346.914 576.48L308.572 558.76L260.039 536.33L221.683 518.61L175.551 497.29L201.704 459.24L223.452 427.6L250.965 387.57L272.707 355.95L517.369 0L776.55 229.8L822.703 270.72L859.505 303.35L905.666 344.27L962.551 394.71Z" fill="#7BCECD"/>
<path d="M204.354 604.831C169.474 585.387 147.76 558.84 139.815 525.929C133.915 501.493 135.61 473.996 144.853 444.201C151.704 422.234 161.977 401.484 175.292 382.717C245.93 282.73 252.305 217.579 245.215 180.53C237.441 139.907 212.184 123.036 211.929 122.871L213.02 121.194C213.28 121.363 239.203 138.626 247.164 180.074C251.754 203.968 249.594 231.214 240.747 261.055C229.735 298.192 208.262 339.514 176.925 383.871C163.732 402.467 153.553 423.027 146.763 444.793C131.605 493.66 129.46 560.79 205.327 603.085L204.354 604.831Z" fill="#2F2E41"/>
<path d="M221.127 604.831C256.007 585.387 277.721 558.84 285.666 525.929C291.565 501.493 289.87 473.996 280.628 444.201C273.777 422.234 263.504 401.484 250.189 382.717C179.551 282.73 173.175 217.579 180.266 180.53C188.04 139.907 213.297 123.036 213.551 122.871L212.461 121.194C212.2 121.363 186.277 138.626 178.316 180.074C173.727 203.968 175.886 231.214 184.734 261.055C195.746 298.192 217.218 339.514 248.555 383.871C261.749 402.467 271.928 423.027 278.718 444.793C293.876 493.66 296.02 560.79 220.153 603.085L221.127 604.831Z" fill="#2F2E41"/>
<path d="M981.354 520.831C946.474 501.387 924.76 474.84 916.815 441.929C910.915 417.493 912.611 389.996 921.853 360.201C928.704 338.234 938.977 317.484 952.292 298.717C1022.93 198.73 1029.31 133.579 1022.22 96.5303C1014.44 55.9073 989.184 39.0361 988.929 38.8706L990.02 37.1938C990.28 37.3633 1016.2 54.6265 1024.16 96.0737C1028.75 119.968 1026.59 147.214 1017.75 177.055C1006.74 214.192 985.262 255.514 953.925 299.871C940.732 318.467 930.553 339.027 923.763 360.793C908.605 409.66 906.46 476.79 982.327 519.085L981.354 520.831Z" fill="#2F2E41"/>
<path d="M998.127 520.831C1033.01 501.387 1054.72 474.84 1062.67 441.929C1068.57 417.493 1066.87 389.996 1057.63 360.201C1050.78 338.234 1040.5 317.484 1027.19 298.717C956.551 198.73 950.175 133.579 957.266 96.5303C965.04 55.9073 990.297 39.0361 990.551 38.8706L989.461 37.1938C989.2 37.3633 963.277 54.6265 955.316 96.0737C950.727 119.968 952.886 147.214 961.734 177.055C972.746 214.192 994.218 255.514 1025.56 299.871C1038.75 318.467 1048.93 339.027 1055.72 360.793C1070.88 409.66 1073.02 476.79 997.153 519.085L998.127 520.831Z" fill="#2F2E41"/>
<path d="M467.815 299.945C441.608 255.663 389.76 253.6 389.76 253.6C389.76 253.6 339.237 247.139 306.826 314.58C276.617 377.441 234.925 438.134 300.114 452.85L311.889 416.2L319.182 455.578C328.463 456.246 337.775 456.405 347.074 456.055C416.886 453.801 483.371 456.714 481.231 431.663C478.385 398.36 493.031 342.553 467.815 299.945Z" fill="#2F2E41"/>
<path d="M360.247 392.622C369.277 412.598 374.972 436.408 378.372 462.856L450.871 458.325C434.203 434.706 428.669 407.596 435.012 376.763L360.247 392.622Z" fill="#FFB8B8"/>
<path opacity="0.2" d="M360.247 392.622C369.277 412.598 374.972 436.408 378.372 462.856L450.871 458.325C434.203 434.706 428.669 407.596 435.012 376.763L360.247 392.622Z" fill="black"/>
<path d="M23.8721 772.943C23.8721 772.943 -13.6506 793.042 5.3902 810.202C24.4311 827.362 49.5831 787.488 49.5831 787.488L23.8721 772.943Z" fill="#FFB8B8"/>
<path d="M482.591 714.334L482.005 741.792L480.754 801.122V801.132L480.39 818.314H240.438L250.19 764.163L250.2 764.123L258.932 715.656L262.829 693.951V693.941L459.937 666.755L482.591 714.334Z" fill="#2F2E41"/>
<path d="M482.589 714.337L482 741.796C412.265 740.006 304.174 723.173 258.93 715.651L262.826 693.946L459.933 666.759L482.589 714.337Z" fill="#3F3D56"/>
<path d="M395.364 411.88C426.645 411.88 452.004 386.521 452.004 355.24C452.004 323.958 426.645 298.6 395.364 298.6C364.083 298.6 338.724 323.958 338.724 355.24C338.724 386.521 364.083 411.88 395.364 411.88Z" fill="#FFB8B8"/>
<path d="M504.113 744.923C504.113 744.923 510.909 806.094 470.129 801.563L463.332 740.392L427.082 704.142L325.13 701.876L250.366 772.11C250.366 772.11 248.1 699.611 257.162 692.814C266.225 686.017 286.615 670.158 286.615 670.158V658.83L225.444 534.222C225.444 534.222 261.694 459.458 291.146 457.192L329.662 454.926C329.662 454.926 343.255 448.13 343.255 445.864C343.255 443.598 340.99 425.474 352.318 430.005C352.318 430.005 353.337 406.76 365.277 413.851C365.277 413.851 402.863 443.304 441.016 415.142C441.016 415.142 458.801 411.88 456.535 420.942C454.269 430.005 456.535 436.802 461.066 436.802C465.597 436.802 485.988 443.598 485.988 448.13C485.988 449.104 487.461 458.483 489.771 472.598V472.621C498.177 524.072 517.706 638.44 517.706 638.44C517.706 638.44 538.097 667.893 504.113 744.923Z" fill="#D81159"/>
<path d="M241.303 522.894L225.444 534.222L80.4458 720.001L3.41553 781.172C3.41553 781.172 46.4619 774.375 37.3995 810.625L302.474 658.83L241.303 522.894Z" fill="#D81159"/>
<path d="M489.771 472.598V472.621C486.758 490.338 388.567 486.645 374.974 486.645C361.38 486.645 350.052 484.379 336.458 475.317C322.865 466.254 329.662 454.926 329.662 454.926C329.662 454.926 341.236 446.11 341.236 443.845C341.236 441.579 338.971 423.455 350.299 427.986C350.299 427.986 351.318 404.741 363.258 411.832C363.258 411.832 402.863 443.304 441.016 415.142C441.016 415.142 458.801 411.88 456.535 420.942C454.269 430.005 456.535 436.802 461.066 436.802C465.597 436.802 485.988 443.598 485.988 448.13C485.988 449.104 487.461 458.483 489.771 472.598Z" fill="#3F3D56"/>
<path d="M478.058 388.091C478.058 388.091 459.933 349.576 441.809 367.701C423.684 385.826 462.199 413.013 462.199 413.013L478.058 388.091Z" fill="#FFB8B8"/>
<path d="M478.058 379.029C478.058 379.029 450.071 414.398 441.408 417.104C441.408 417.104 466.73 517.23 498.449 544.417L516.573 637.307C516.573 637.307 593.604 605.589 575.479 553.48C575.298 552.959 575.117 552.441 574.938 551.926C559.804 508.53 538.919 467.361 512.84 429.518L478.058 379.029Z" fill="#D81159"/>
<path opacity="0.2" d="M463.102 483.933L518.839 637.307L498.449 544.417L463.102 483.933Z" fill="black"/>
<path d="M456.229 295.676L405.005 268.845L334.268 279.821L319.632 344.46L356.064 343.059L366.242 319.311V342.668L383.052 342.021L392.809 304.213L398.907 344.46L458.668 343.241L456.229 295.676Z" fill="#2F2E41"/>
<path d="M940.129 644.338L969.191 748.009C969.191 748.009 963.202 839.836 991.15 821.87C1019.75 803.484 1009.12 726.05 1009.12 726.05L992.364 633.043L940.129 644.338Z" fill="#A0616A"/>
<path d="M955.658 353.515L979.658 377.515V491.867C979.658 491.867 993.776 513.044 990.952 518.691C988.129 524.338 985.305 524.338 988.129 528.573C990.952 532.808 993.776 535.632 990.952 538.455C988.129 541.279 988.129 548.338 990.952 551.161C993.776 553.985 999.423 558.22 995.187 562.455C990.952 566.691 985.305 563.867 990.952 579.396C996.599 594.926 1006.48 599.161 1003.66 604.808C1000.83 610.455 1000.83 624.573 1000.83 624.573L940.129 633.043L927.423 473.514L955.658 353.515Z" fill="#D0CDE1"/>
<path d="M1003.66 623.161L933.07 625.985L935.893 655.632L998.011 644.338L1003.66 623.161Z" fill="#3F3D56"/>
<path d="M809.541 205.986L801.07 290.691L887.188 303.397L893.541 254.692L899.894 205.986H809.541Z" fill="#A0616A"/>
<path opacity="0.1" d="M809.541 205.527L801.07 290.233L887.188 302.939L893.541 254.233L899.894 205.527H809.541Z" fill="black"/>
<path d="M622.483 609.043L670.482 712.102C670.482 712.102 678.953 760.102 691.659 761.514C704.365 762.925 717.071 712.102 717.071 712.102L700.129 685.279L680.365 609.043H622.483Z" fill="#A0616A"/>
<path d="M951.056 819.314H679.688C681.838 785.303 683.19 764.336 683.19 764.336L686.794 758.662L704.269 731.203L716.747 711.598L721.098 704.754L722.713 702.22L739.804 699.101L916.127 666.927C919.043 679.986 923.17 692.744 928.453 705.037C929.654 707.772 930.946 710.508 932.329 713.214C936.761 721.865 942.172 730.062 948.603 736.099C950.067 737.472 951.127 741.137 951.813 746.77C953.509 760.57 953.024 786.232 951.056 819.314Z" fill="#2F2E41"/>
<path d="M856.835 233.515C894.26 233.515 924.599 203.176 924.599 165.75C924.599 128.325 894.26 97.9858 856.835 97.9858C819.41 97.9858 789.07 128.325 789.07 165.75C789.07 203.176 819.41 233.515 856.835 233.515Z" fill="#A0616A"/>
<path d="M705.776 304.103L695.894 298.456C695.894 298.456 652.13 328.103 638.012 394.456C623.894 460.809 614.012 477.75 614.012 477.75C614.012 477.75 599.894 480.573 609.777 490.456C619.659 500.338 619.659 498.926 611.189 504.573C602.718 510.22 597.071 498.926 602.718 510.22C608.365 521.514 615.424 518.691 609.777 525.75C604.13 532.808 594.247 532.808 599.894 538.455C605.541 544.102 594.247 556.808 601.306 562.455C608.365 568.102 611.189 569.514 611.189 579.396C611.145 585.164 612.101 590.896 614.012 596.338H687.424C687.424 596.338 673.306 569.514 677.541 563.867C681.777 558.22 683.188 552.573 680.365 549.749C677.541 546.926 669.071 552.573 677.541 545.514C686.012 538.455 688.835 542.691 686.012 534.22C683.188 525.75 677.541 529.985 683.188 525.75C688.835 521.514 693.071 522.926 690.247 518.691C687.424 514.455 681.777 514.455 687.424 511.632C693.071 508.808 697.306 511.632 695.894 504.573C694.482 497.514 693.071 500.338 695.894 497.514C698.718 494.691 728.365 398.691 728.365 395.867C728.365 393.044 705.776 304.103 705.776 304.103Z" fill="#D0CDE1"/>
<path d="M691.659 590.691L602.718 596.338L625.306 617.514L687.424 618.926L691.659 590.691Z" fill="#3F3D56"/>
<path d="M717.071 696.573L698.718 730.455C698.718 730.455 753.776 737.514 773.541 744.573C793.306 751.631 844.129 761.514 844.129 761.514L856.835 712.102L717.071 696.573Z" fill="#3F3D56"/>
<path d="M878.011 712.102L893.541 758.69L955.658 745.984L948.599 702.22L878.011 712.102Z" fill="#3F3D56"/>
<path d="M903.423 256.103C903.423 256.103 899.188 253.28 889.305 258.927C879.423 264.574 846.953 267.397 831.423 250.456C815.894 233.515 804.6 219.397 800.365 222.221C796.129 225.044 793.306 257.515 793.306 257.515L779.188 268.809L695.894 298.456L702.953 489.044L715.659 532.808C715.659 532.808 705.777 566.691 718.482 586.455C731.188 606.22 711.424 613.279 711.424 613.279C711.424 613.279 707.188 618.926 710.012 633.043C712.835 647.161 707.188 699.396 707.188 699.396C707.188 699.396 827.188 753.043 952.835 706.455L938.717 652.808L931.658 532.808C931.658 532.808 938.717 513.044 937.305 504.573C935.894 496.103 979.658 377.515 979.658 377.515C979.658 377.515 972.599 318.221 935.894 305.515C899.188 292.809 893.541 280.103 893.541 280.103C893.541 280.103 910.482 261.75 903.423 256.103Z" fill="#D0CDE1"/>
<path d="M788.6 174.431C788.6 174.431 781.563 163.876 784.27 152.508C785.887 146.054 786.526 139.394 786.165 132.751C786.165 132.751 791.848 114.346 797.532 104.061C803.216 93.7766 800.509 89.4461 818.372 86.1983C836.235 82.9504 828.928 59.6743 876.022 84.845C877.61 87.0634 879.821 88.7615 882.374 89.7248C884.927 90.6882 887.708 90.8738 890.366 90.2581C900.11 88.3635 903.628 101.896 903.628 101.896C903.628 101.896 910.124 98.107 912.56 103.52C914.996 108.933 932.364 100.271 932.364 136.81C932.364 173.348 912.599 205.986 912.599 205.986C912.599 205.986 914.048 144.524 881.841 138.299C849.633 132.074 814.989 113.94 806.599 137.216C798.209 160.493 788.6 174.431 788.6 174.431Z" fill="#2F2E41"/>
<path d="M913.305 189.045C916.814 189.045 919.658 185.252 919.658 180.574C919.658 175.896 916.814 172.104 913.305 172.104C909.797 172.104 906.952 175.896 906.952 180.574C906.952 185.252 909.797 189.045 913.305 189.045Z" fill="#A0616A"/>
</g>
<defs>
<clipPath id="clip0">
<rect width="1066.11" height="824.2" fill="white"/>
</clipPath>
</defs>
</svg>
