<svg width="911" height="705" viewBox="0 0 911 705" fill="none" xmlns="http://www.w3.org/2000/svg">
<g clip-path="url(#clip0)">
<path d="M697.317 641.736C724.105 641.736 745.82 597.427 745.82 542.77C745.82 488.113 724.105 443.805 697.317 443.805C670.53 443.805 648.814 488.113 648.814 542.77C648.814 597.427 670.53 641.736 697.317 641.736Z" fill="#3F3D56"/>
<path d="M692.838 704.76C712.264 588.209 693.034 472.079 692.837 470.92L689.059 471.56C689.254 472.713 708.374 588.233 689.058 704.132L692.838 704.76Z" fill="#D81159"/>
<path d="M654.615 521.49L652.807 524.87L696.666 548.33L698.474 544.95L654.615 521.49Z" fill="#D81159"/>
<path d="M742.956 533.241L699.102 556.715L700.91 560.094L744.765 536.621L742.956 533.241Z" fill="#D81159"/>
<path d="M813.855 579.708C866.248 579.708 908.721 493.047 908.721 386.144C908.721 279.241 866.248 192.58 813.855 192.58C761.462 192.58 718.989 279.241 718.989 386.144C718.989 493.047 761.462 579.708 813.855 579.708Z" fill="#E6E6E6"/>
<path d="M803.288 702.677C841.232 475.017 803.671 248.185 803.287 245.921L799.509 246.561C799.891 248.82 837.342 475.041 799.508 702.048L803.288 702.677Z" fill="#D81159"/>
<path d="M729.469 346.136L727.661 349.516L813.447 395.402L815.255 392.022L729.469 346.136Z" fill="#D81159"/>
<path d="M903.983 369.122L818.209 415.031L820.018 418.411L905.792 372.502L903.983 369.122Z" fill="#D81159"/>
<path d="M593.53 703.285H88.9333C87.0775 703.283 85.2983 702.545 83.986 701.232C82.6737 699.92 81.9355 698.141 81.9333 696.285V377.439C81.9354 375.584 82.6736 373.804 83.9859 372.492C85.2982 371.18 87.0775 370.442 88.9333 370.439H593.53C595.385 370.442 597.165 371.18 598.477 372.492C599.789 373.804 600.527 375.584 600.53 377.439V696.285C600.527 698.141 599.789 699.92 598.477 701.232C597.165 702.545 595.385 703.283 593.53 703.285Z" fill="#E6E6E6"/>
<path d="M135.338 409.077C134.542 409.078 133.78 409.394 133.217 409.957C132.655 410.519 132.339 411.282 132.338 412.077V661.648C132.339 662.444 132.655 663.206 133.217 663.769C133.78 664.331 134.542 664.648 135.338 664.648H547.125C547.921 664.648 548.683 664.331 549.246 663.769C549.808 663.206 550.124 662.444 550.125 661.648V412.077C550.124 411.282 549.808 410.519 549.246 409.957C548.683 409.394 547.921 409.078 547.125 409.077H135.338Z" fill="white"/>
<path d="M551.125 457.542H126.572V473.357H551.125V457.542Z" fill="#E6E6E6"/>
<path d="M551.125 534.859H126.572V550.674H551.125V534.859Z" fill="#E6E6E6"/>
<path d="M367.251 492.687H189.773V508.501H367.251V492.687Z" fill="#E6E6E6"/>
<path d="M551.125 616.569H126.572V632.384H551.125V616.569Z" fill="#E6E6E6"/>
<path d="M197.681 408.077H181.866V626.234H197.681V408.077Z" fill="#E6E6E6"/>
<path d="M492.891 408.077H477.076V543.645H492.891V408.077Z" fill="#E6E6E6"/>
<path d="M373.401 408.077H357.586V665.648H373.401V408.077Z" fill="#E6E6E6"/>
<path d="M282.905 537.495H267.091V665.648H282.905V537.495Z" fill="#E6E6E6"/>
<path d="M365.494 564.975C376.654 564.975 385.702 555.927 385.702 544.767C385.702 533.606 376.654 524.559 365.494 524.559C354.333 524.559 345.286 533.606 345.286 544.767C345.286 555.927 354.333 564.975 365.494 564.975Z" fill="#D81159"/>
<path d="M910.513 704.996H0V702.814H910.908L910.513 704.996Z" fill="#3F3D56"/>
<path d="M367.916 424.722C436.761 424.722 492.572 368.912 492.572 300.067C492.572 231.222 436.761 175.411 367.916 175.411C299.071 175.411 243.261 231.222 243.261 300.067C243.261 368.912 299.071 424.722 367.916 424.722Z" fill="#D81159"/>
<path d="M369.135 502.707L329.753 435.433L290.371 368.159L368.323 367.69L446.275 367.221L407.705 434.964L369.135 502.707Z" fill="#D81159"/>
<path d="M368.917 344.007C393.618 344.007 413.641 323.983 413.641 299.283C413.641 274.582 393.618 254.558 368.917 254.558C344.216 254.558 324.192 274.582 324.192 299.283C324.192 323.983 344.216 344.007 368.917 344.007Z" fill="white"/>
<path d="M365.033 0.640523C365.033 0.640523 338.359 -6.87319 330.47 29.5683C322.58 66.0097 328.591 84.4183 328.591 84.4183L388.137 77.4681C388.137 77.4681 405.043 11.7232 365.033 0.640523Z" fill="#2F2E41"/>
<path d="M325.126 158.476C325.126 158.476 286 162.373 292.969 178.169C299.938 193.965 299.937 195.358 299.937 195.358L334.317 256.684L345.467 245.069C345.467 245.069 332.923 217.659 332.923 208.832C332.923 200.004 319.915 184.673 319.915 184.673L342.679 182.815L325.126 158.476Z" fill="#FFB9B9"/>
<path d="M432.344 177.24L445.353 205.579C445.353 205.579 455.109 215.336 465.795 254.361C476.48 293.386 478.803 291.993 478.803 291.993L462.543 295.245C462.543 295.245 444.424 252.967 438.384 249.715C432.344 246.463 424.911 216.73 424.911 216.73L403.54 189.784L410.044 175.381L432.344 177.24Z" fill="#FFB9B9"/>
<path d="M416.549 144.719L436.526 181.886C436.526 181.886 411.438 170.271 407.721 195.823L384.957 178.169C384.957 178.169 353.365 188.39 334.317 184.673C334.317 184.673 339.892 167.019 319.915 159.121L364.979 153.546L363.121 143.79L367.767 134.498L416.549 144.719Z" fill="#2F2E41"/>
<path d="M337.105 248.321C337.105 248.321 324.561 246.463 327.813 257.613L334.317 279.913C334.317 279.913 325.954 302.678 338.963 297.568C351.971 292.457 360.334 260.865 360.334 260.865C360.334 260.865 365.909 236.707 360.334 236.707C354.759 236.707 337.105 232.99 338.963 236.707C340.821 240.423 337.105 248.321 337.105 248.321Z" fill="#2F2E41"/>
<path d="M477.41 285.489C477.41 285.489 461.149 281.307 457.432 287.811C453.716 294.316 454.645 315.687 454.645 316.151C454.645 316.616 460.22 321.262 462.078 321.262C463.937 321.262 475.551 342.168 491.347 334.735C507.143 327.301 477.41 285.489 477.41 285.489Z" fill="#2F2E41"/>
<path d="M378.218 42.1581C379.821 32.2805 373.113 22.9738 363.235 21.3709C353.358 19.768 344.051 26.4759 342.448 36.3535C340.845 46.2311 347.553 55.5379 357.431 57.1408C367.308 58.7437 376.615 52.0357 378.218 42.1581Z" fill="#FFB9B9"/>
<path d="M375.2 42.9744C375.2 42.9744 378.917 62.487 382.169 65.2745C385.421 68.062 357.546 72.2433 357.546 72.2433C357.546 72.2433 361.727 58.7703 356.617 51.8015C351.507 44.8327 375.2 42.9744 375.2 42.9744Z" fill="#FFB9B9"/>
<path d="M423.982 153.546C420.818 153.546 412.762 152.236 403.731 150.549C395.916 149.091 387.363 147.358 380.617 145.955C373.393 144.449 368.232 143.325 368.232 143.325C368.232 143.325 366.373 154.94 360.334 153.546C355.13 152.347 339.581 98.0325 335.376 83.0217C335.069 81.9256 335.128 80.7592 335.545 79.7C335.962 78.6407 336.713 77.7467 337.685 77.154L359.042 64.113L364.515 66.2036C364.515 66.2036 373.76 59.0583 379.126 58.9142C384.492 58.7702 393.784 57.3765 393.784 57.3765C393.784 57.3765 404.469 58.3056 406.328 66.2036C408.186 74.1016 409.115 123.348 416.084 132.175C423.053 141.002 432.809 153.546 423.982 153.546Z" fill="#D0CDE1"/>
<path d="M358.94 179.563C358.94 179.563 358.94 197.681 371.019 194.894C383.098 192.106 371.948 175.381 371.948 175.381L358.94 179.563Z" fill="#FFB9B9"/>
<path d="M392.39 181.421C392.39 181.421 388.209 202.792 379.382 199.54C370.555 196.288 379.382 177.24 379.382 177.24L392.39 181.421Z" fill="#FFB9B9"/>
<path opacity="0.15" d="M411.903 130.781C411.903 130.781 407.355 141.634 403.731 150.549C395.917 149.09 387.363 147.358 380.618 145.955C381.102 144.671 381.782 143.471 382.634 142.396C385.886 138.679 384.028 137.75 384.028 137.75C381.24 132.175 383.563 124.742 383.563 124.742C377.988 109.875 386.351 91.2913 386.351 91.2913L411.903 130.781Z" fill="black"/>
<path d="M387.745 91.2912C387.745 91.2912 379.382 109.875 384.957 124.741C384.957 124.741 382.634 132.175 385.422 137.75C385.422 137.75 387.28 138.679 384.028 142.396C380.776 146.112 377.988 159.121 380.311 161.908C382.634 164.696 377.059 169.806 378.453 172.594C379.847 175.381 376.13 179.098 376.13 179.098C376.13 179.098 390.067 181.886 392.39 186.067C392.39 186.067 395.178 182.815 393.784 179.098C392.39 175.381 393.32 173.988 394.713 171.665C396.107 169.342 400.288 164.231 400.753 161.908C401.218 159.585 413.297 130.781 413.297 130.781L407.632 78.2893L387.745 91.2912Z" fill="#D0CDE1"/>
<path d="M339.427 78.2827L338.559 78.4405C337.349 78.66 336.255 79.2996 335.47 80.2466C334.686 81.1936 334.26 82.3872 334.269 83.6171C334.302 88.2817 334.565 96.5599 335.711 108.016C337.569 126.6 344.073 154.475 345.467 157.262C347.68 162.195 350.162 167.003 352.9 171.665C357.082 178.633 358.011 176.311 357.082 179.563C356.799 180.458 356.78 181.417 357.027 182.323C357.274 183.229 357.777 184.045 358.475 184.673C358.475 184.673 366.838 175.381 375.201 180.492C375.798 179.178 376.115 177.754 376.13 176.311C376.13 173.988 377.524 171.665 375.201 170.271C372.878 168.877 376.594 162.838 372.878 159.585C369.161 156.333 368.696 156.798 369.161 153.546C369.378 151.335 369.059 149.104 368.232 147.042L339.427 78.2827Z" fill="#D0CDE1"/>
<path d="M367.107 15.9827C367.107 15.9827 359.594 35.894 341.185 44.159L338.18 26.5018L367.107 15.9827Z" fill="#2F2E41"/>
<path d="M377.988 37.167C379.399 37.167 380.543 34.9829 380.543 32.2888C380.543 29.5947 379.399 27.4106 377.988 27.4106C376.577 27.4106 375.433 29.5947 375.433 32.2888C375.433 34.9829 376.577 37.167 377.988 37.167Z" fill="#FFB9B9"/>
</g>
<defs>
<clipPath id="clip0">
<rect width="910.908" height="704.996" fill="white"/>
</clipPath>
</defs>
</svg>
