<?xml version="1.0" standalone="no"?>
<!DOCTYPE svg PUBLIC "-//W3C//DTD SVG 20010904//EN"
 "http://www.w3.org/TR/2001/REC-SVG-20010904/DTD/svg10.dtd">
<svg version="1.0" xmlns="http://www.w3.org/2000/svg"
 width="400.000000pt" height="400.000000pt" viewBox="0 0 400.000000 400.000000"
 preserveAspectRatio="xMidYMid meet">
<metadata>
Created by potrace 1.11, written by Peter Selinger 2001-2013
</metadata>
<g transform="translate(0.000000,400.000000) scale(0.100000,-0.100000)"
fill="#000000" stroke="none">
<path d="M2100 3160 c-1431 -480 -1380 -461 -1365 -522 5 -18 104 -102 356
-299 l349 -274 0 -263 0 -263 25 -24 c13 -14 33 -25 44 -25 11 0 92 56 181
125 l161 126 150 -118 c254 -199 300 -233 319 -233 11 0 30 10 43 23 27 24
1158 2087 1165 2124 5 28 -39 73 -70 72 -13 0 -624 -202 -1358 -449z m945 161
c-46 -42 -1524 -1125 -1535 -1125 -17 0 -564 427 -552 432 16 8 2078 699 2087
701 5 0 5 -2 0 -8z m192 -38 c-2 -5 -210 -386 -462 -848 -252 -462 -463 -846
-470 -853 -9 -10 -80 42 -344 249 -277 218 -331 264 -319 275 13 13 1591 1183
1596 1184 2 0 1 -3 -1 -7z m-1564 -1402 c31 -24 57 -47 57 -51 0 -6 -47 -45
-137 -113 -10 -7 -13 17 -13 112 0 115 1 121 18 109 10 -7 43 -33 75 -57z"/>
<path d="M1058 1708 c-61 -48 -155 -264 -165 -378 -5 -63 -7 -67 -68 -130 -34
-36 -75 -83 -92 -105 -50 -65 -103 -169 -103 -202 0 -67 87 -87 123 -28 37 61
116 181 135 204 l20 25 26 -57 c75 -158 276 -241 421 -173 91 42 145 123 153
228 4 59 1 75 -22 122 -47 97 -148 157 -276 163 -49 3 -92 -1 -124 -11 l-48
-15 6 32 c8 40 58 148 97 208 16 25 29 55 29 67 0 49 -72 80 -112 50z m207
-479 c21 -6 54 -26 73 -45 32 -32 34 -38 30 -86 -5 -44 -11 -57 -42 -85 -30
-28 -43 -33 -83 -33 -93 0 -164 55 -197 154 -20 59 -13 70 53 90 57 18 113 19
166 5z"/>
<path d="M547 688 c-18 -13 -77 -189 -77 -228 0 -28 39 -70 65 -70 45 0 70 38
100 148 l28 103 -20 27 c-23 31 -68 40 -96 20z"/>
</g>
</svg>
